<svg width="32" height="32" viewBox="0 0 32 32" fill="none" xmlns="http://www.w3.org/2000/svg">
<path d="M10.4575 3.38524C8.79346 2.96284 7.04946 3.14204 5.68306 3.90684C4.29106 4.68444 3.31506 6.06364 3.26706 7.90844C3.19346 10.7916 3.86066 14.6604 6.51026 19.2012C9.12626 23.686 12.0143 26.374 14.4111 27.9708C15.9247 28.9804 17.5967 29.0076 19.0255 28.35C20.4335 27.702 21.5759 26.4076 22.1695 24.8028C22.3172 24.4037 22.3765 23.9773 22.3434 23.553C22.3102 23.1286 22.1854 22.7166 21.9775 22.3452L20.4511 19.622C19.9818 18.7839 19.2267 18.1426 18.3236 17.8153C17.4206 17.4881 16.4299 17.4967 15.5327 17.8396L14.4671 18.2476C13.9503 18.4444 13.4751 18.3532 13.2063 18.0876C12.3023 17.1996 11.6559 15.9948 11.3631 14.6956C11.2703 14.286 11.4591 13.8028 11.9103 13.462L12.8719 12.7356C13.6493 12.149 14.1859 11.2989 14.3812 10.3448C14.5765 9.39072 14.417 8.39813 13.9327 7.55324L12.3775 4.84124C12.1714 4.48219 11.8953 4.16826 11.5654 3.91813C11.2356 3.66799 10.8588 3.48677 10.4575 3.38524ZM4.86706 7.95164C4.89906 6.71324 5.52626 5.82844 6.46386 5.30364C7.42706 4.76444 8.74226 4.59964 10.0639 4.93564C10.2575 4.98455 10.4393 5.07195 10.5985 5.19262C10.7577 5.3133 10.8909 5.46478 10.9903 5.63804L12.5439 8.35004C12.8344 8.85677 12.9302 9.45208 12.8133 10.0244C12.6964 10.5967 12.3747 11.1067 11.9087 11.4588L10.9471 12.1852C10.1151 12.8124 9.53906 13.8876 9.80146 15.0476C10.1567 16.6188 10.9423 18.1084 12.0847 19.23C12.9199 20.0492 14.1103 20.0972 15.0383 19.742L16.1039 19.334C16.6422 19.128 17.2368 19.1226 17.7789 19.3188C18.3209 19.5151 18.7742 19.8999 19.0559 20.4028L20.5807 23.1276C20.7727 23.47 20.8047 23.8796 20.6687 24.2476C20.2047 25.5036 19.3327 26.446 18.3567 26.8956C17.4015 27.3356 16.3215 27.3228 15.2991 26.6396C13.1055 25.1772 10.3871 22.67 7.89106 18.3948C5.39346 14.1068 4.80146 10.5324 4.86866 7.95164H4.86706ZM20.3903 3.29884C20.2048 3.19572 19.986 3.1705 19.782 3.22871C19.5779 3.28692 19.4054 3.4238 19.3023 3.60924C19.1991 3.79468 19.1739 4.01349 19.2321 4.21753C19.2903 4.42157 19.4272 4.59412 19.6127 4.69724L20.2271 5.03964C22.1464 6.10589 23.7791 7.621 24.9856 9.45549C26.192 11.29 26.9364 13.3893 27.1551 15.574L27.2063 16.078C27.2123 16.1859 27.2401 16.2914 27.2881 16.3883C27.336 16.4851 27.4031 16.5712 27.4852 16.6414C27.5673 16.7116 27.6628 16.7645 27.7659 16.7968C27.869 16.829 27.9776 16.8401 28.0851 16.8293C28.1926 16.8185 28.2968 16.786 28.3914 16.7338C28.486 16.6816 28.569 16.6108 28.6355 16.5257C28.702 16.4405 28.7506 16.3428 28.7783 16.2383C28.806 16.1339 28.8122 16.025 28.7967 15.918L28.7471 15.4156C28.5029 12.9734 27.671 10.6266 26.3224 8.57583C24.9739 6.52509 23.1487 4.83143 21.0031 3.63964L20.3903 3.29884ZM18.5151 7.58684C18.6244 7.40504 18.8014 7.27408 19.0072 7.22277C19.213 7.17147 19.4308 7.20401 19.6127 7.31324L19.8111 7.43164C21.1026 8.20596 22.2105 9.25152 23.0584 10.496C23.9062 11.7405 24.4736 13.1543 24.7215 14.6396L24.7919 15.0668C24.812 15.1716 24.811 15.2793 24.7889 15.3837C24.7667 15.4881 24.724 15.5869 24.6631 15.6745C24.6022 15.7621 24.5244 15.8366 24.4342 15.8937C24.3441 15.9508 24.2435 15.9892 24.1383 16.0069C24.0331 16.0245 23.9254 16.0208 23.8216 15.9962C23.7178 15.9716 23.62 15.9265 23.5339 15.8635C23.4478 15.8005 23.3751 15.7209 23.3203 15.6294C23.2654 15.538 23.2293 15.4364 23.2143 15.3308L23.1423 14.9036C22.9329 13.6471 22.4532 12.4509 21.7364 11.3979C21.0195 10.3448 20.0825 9.45997 18.9903 8.80444L18.7919 8.68444C18.7017 8.63045 18.6231 8.55924 18.5604 8.47485C18.4978 8.39047 18.4524 8.29458 18.4269 8.19265C18.4013 8.09072 18.3961 7.98476 18.4115 7.88081C18.4269 7.77687 18.4626 7.67698 18.5167 7.58684H18.5151Z" fill="black"/>
</svg>
