<svg width="20" height="21" viewBox="0 0 20 21" fill="none" xmlns="http://www.w3.org/2000/svg">
<path fill-rule="evenodd" clip-rule="evenodd" d="M10 3.42188C10.2652 3.42188 10.5196 3.52723 10.7071 3.71477L13.7071 6.71477C14.0976 7.10529 14.0976 7.73846 13.7071 8.12898C13.3166 8.51951 12.6834 8.51951 12.2929 8.12898L10 5.83609L7.70711 8.12898C7.31658 8.51951 6.68342 8.51951 6.29289 8.12898C5.90237 7.73846 5.90237 7.10529 6.29289 6.71477L9.29289 3.71477C9.48043 3.52723 9.73478 3.42188 10 3.42188ZM6.29289 12.7148C6.68342 12.3242 7.31658 12.3242 7.70711 12.7148L10 15.0077L12.2929 12.7148C12.6834 12.3242 13.3166 12.3242 13.7071 12.7148C14.0976 13.1053 14.0976 13.7385 13.7071 14.129L10.7071 17.129C10.3166 17.5195 9.68342 17.5195 9.29289 17.129L6.29289 14.129C5.90237 13.7385 5.90237 13.1053 6.29289 12.7148Z" fill="#9CA3AF"/>
</svg>
