<svg width="18" height="32" viewBox="0 0 18 32" fill="none" xmlns="http://www.w3.org/2000/svg">
<path d="M7.92095 0.971212C4.4272 1.07121 2.08345 1.64934 1.03658 2.66809C0.683452 3.01184 0.483452 3.37121 0.386577 3.84309C0.339702 4.07746 0.336577 4.25559 0.352202 5.40559C0.361577 6.11809 0.386577 6.84934 0.402202 7.03059C0.570952 8.71184 0.914703 9.53059 1.99595 10.815C2.15845 11.0118 2.4147 11.2712 4.6397 13.5306C6.21158 15.1243 6.65533 15.665 6.65533 15.9806C6.65533 16.0243 6.6022 16.1618 6.53658 16.2868C6.32095 16.6962 5.98033 17.1087 4.90533 18.2493C4.6397 18.5337 4.2397 18.9618 4.0147 19.2025C3.79283 19.4431 3.48033 19.7712 3.32408 19.9368C2.80533 20.4775 2.34908 20.9931 2.0397 21.3806C1.1522 22.4931 0.814703 23.1556 0.627202 24.1556C0.502202 24.8337 0.483452 25.1212 0.489702 26.515C0.492827 27.9806 0.505327 28.1212 0.674077 28.5087C1.18345 29.665 2.40845 30.365 4.68658 30.7931C5.64283 30.9743 6.90533 31.0775 8.46783 31.1025C9.36471 31.1181 10.7022 31.0712 11.5616 30.9993C12.2866 30.9337 13.4522 30.7681 13.7335 30.6868C13.7866 30.6712 13.9616 30.6275 14.1241 30.59C16.0585 30.1368 17.2147 29.2993 17.5366 28.1181C17.6053 27.865 17.6085 27.8212 17.6053 26.5618C17.6022 25.5556 17.5897 25.1618 17.5491 24.8118C17.3866 23.4306 17.1272 22.7743 16.3178 21.7025C15.8491 21.0806 15.6053 20.8118 13.9803 19.1243C12.2772 17.3556 11.996 17.0462 11.6303 16.54C11.4116 16.24 11.3303 16.0556 11.3522 15.8931C11.3866 15.59 11.8803 14.9556 12.921 13.8743C13.1428 13.64 13.5022 13.2681 13.7147 13.0462C13.9303 12.8212 14.2803 12.4556 14.496 12.2337C15.1991 11.5056 15.5428 11.1431 15.7522 10.9056C16.6897 9.83684 17.121 9.01184 17.3241 7.90559C17.4428 7.24934 17.4741 6.81184 17.4803 5.73371C17.4866 4.31184 17.4585 3.74934 17.3803 3.51496C17.1178 2.75559 16.4616 2.17121 15.3897 1.75871C13.8303 1.15246 11.2022 0.874338 7.92095 0.971212ZM10.5616 1.90559C12.5678 2.00246 14.1397 2.27121 15.2022 2.69934C15.946 2.99934 16.246 3.36184 16.0835 3.75871C15.771 4.49934 12.8803 5.31184 9.98345 5.47121C9.25845 5.51184 7.62095 5.49309 7.0147 5.43684C5.75845 5.32434 4.59908 5.11809 3.59283 4.83059C2.5022 4.52121 1.89908 4.19934 1.71158 3.83371C1.6397 3.68684 1.6522 3.54934 1.7647 3.35871C2.1772 2.64621 4.59595 2.03371 7.4522 1.91809C7.7272 1.90559 7.95533 1.89309 7.96158 1.88996C7.9897 1.86496 10.0085 1.87746 10.5616 1.90559ZM16.5991 4.79934C16.6366 4.93996 16.6335 7.09934 16.5928 7.42121C16.5241 7.98996 16.3928 8.41184 16.1616 8.79621C15.846 9.32746 15.021 10.3087 13.6835 11.7493C13.5022 11.9462 13.3116 12.1493 13.2678 12.2025C13.221 12.2525 13.1241 12.3587 13.0522 12.4368C11.6616 13.9368 11.2928 14.3712 10.8741 14.9962C10.6116 15.3868 10.4897 15.6806 10.4897 15.9118C10.496 16.3681 10.821 16.9868 11.4647 17.7618C11.7116 18.0556 12.4178 18.8337 12.6366 19.0462C12.6897 19.0993 12.9022 19.3243 13.1085 19.5462C13.3147 19.7681 13.5178 19.9837 13.5616 20.0306C13.6053 20.0775 13.8647 20.3525 14.1397 20.6431C15.6116 22.1993 16.0741 22.765 16.3585 23.3587C16.6678 24.0087 16.7522 24.64 16.7522 26.3962C16.7522 27.6493 16.7366 27.7775 16.5491 28.1743C16.471 28.34 16.3803 28.465 16.2272 28.615C16.046 28.7993 15.9522 28.8587 15.5616 29.0525C14.3585 29.6462 12.9241 29.9681 10.7803 30.1306C10.1022 30.1806 7.60845 30.1806 6.96783 30.1306C4.99595 29.9712 3.5147 29.6275 2.42408 29.0681C2.07408 28.89 1.8897 28.7431 1.70845 28.5025C1.38658 28.0712 1.34283 27.8087 1.34283 26.2681C1.3397 24.7837 1.38345 24.3306 1.58345 23.7212C1.78033 23.115 2.55533 22.1087 4.01783 20.5618C4.1397 20.4337 4.3147 20.2431 4.40845 20.1431C4.5022 20.04 4.61158 19.9212 4.65533 19.8743C6.03345 18.415 6.6647 17.69 7.00533 17.1868C7.52408 16.4181 7.61158 16.0056 7.3647 15.4837C7.15845 15.0525 6.81783 14.5775 6.22408 13.9056C5.9147 13.5525 5.5147 13.1243 3.7647 11.2962C3.18658 10.6931 2.42408 9.83684 2.1397 9.46809C1.35533 8.45871 1.2272 8.01184 1.21783 6.24621C1.21158 4.83996 1.21158 4.81184 1.26158 4.79309C1.28345 4.78371 1.35845 4.81496 1.42408 4.85871C1.63658 5.00559 2.46783 5.39621 2.8897 5.54621C3.55533 5.78684 3.9647 5.89934 4.84283 6.09309C5.22095 6.17434 6.1147 6.29621 6.68658 6.34309C8.97408 6.52746 11.446 6.39309 13.2678 5.98371C14.4272 5.72434 15.671 5.24621 16.3585 4.79309C16.446 4.73684 16.5272 4.69621 16.5428 4.69934C16.5616 4.70246 16.5835 4.74934 16.5991 4.79934Z" fill="black"/>
<path d="M14.2164 8.80589C14.1445 8.86214 13.9883 8.94964 13.5008 9.21214C12.4633 9.77151 11.1445 10.2059 10.0008 10.3653C9.40703 10.4465 8.28516 10.4371 7.68828 10.3465C6.30391 10.1371 5.11016 9.69651 3.64141 8.85589L3.48828 8.76839L3.56328 8.87464C4.01328 9.51839 4.68516 10.3028 5.76641 11.4528C7.28828 13.0715 8.40703 14.3403 8.40703 14.4528C8.40703 14.4621 8.44141 14.5215 8.47891 14.5871C8.54766 14.6934 8.67578 15.0996 8.74766 15.4403C8.76641 15.5184 8.81641 15.8434 8.85703 16.159C8.94141 16.7746 8.98516 17.0246 9.00703 17.0496C9.02578 17.0653 9.04766 16.9246 9.11016 16.3746C9.22578 15.384 9.35078 14.8309 9.53828 14.4996C9.73203 14.1559 10.1539 13.6371 11.0789 12.609C11.3883 12.2653 11.7477 11.8621 11.8758 11.7184C12.0039 11.5715 12.2414 11.3059 12.407 11.1246C13.3039 10.1371 13.7789 9.57151 14.1195 9.09964C14.2414 8.92464 14.3445 8.77464 14.3445 8.76526C14.3445 8.73401 14.2883 8.75276 14.2164 8.80589Z" fill="black"/>
<path d="M8.97188 22.3186C8.91563 22.503 8.64375 23.0186 8.5 23.2092C8.35938 23.3936 8.25938 23.4686 7.71875 23.7905C7.20625 24.0967 6.57188 24.4405 5.23438 25.1248C3.87813 25.8217 3.20625 26.303 2.78438 26.8717C2.625 27.0873 2.4375 27.4436 2.4375 27.5342C2.4375 27.7217 3.70312 28.1842 4.9375 28.4498C5.90937 28.6561 7.65625 28.8186 8.82812 28.8123C11.3969 28.7936 13.3406 28.4905 14.9438 27.8623C15.5469 27.6248 15.675 27.5373 15.6438 27.3842C15.5813 27.103 15.1438 26.5467 14.7063 26.1905C14.2125 25.7936 13.8906 25.6061 12.1562 24.728C11.0156 24.1498 10.3531 23.7905 9.94688 23.5217C9.68125 23.3498 9.48438 23.0873 9.24062 22.5873C9.13438 22.3686 9.0375 22.1873 9.02813 22.1873C9.01875 22.1873 8.99375 22.2467 8.97188 22.3186Z" fill="black"/>
</svg>
